<?xml version="1.0" encoding="UTF-8" standalone="no"?>
<!-- Created with Inkscape (http://www.inkscape.org/) -->

<svg
   width="118.77491mm"
   height="133.60045mm"
   viewBox="0 0 118.77491 133.60045"
   version="1.1"
   id="svg1"
   inkscape:version="1.4.2 (f4327f4, 2025-05-13)"
   sodipodi:docname="AOTM_I_Mini_Left.svg"
   xmlns:inkscape="http://www.inkscape.org/namespaces/inkscape"
   xmlns:sodipodi="http://sodipodi.sourceforge.net/DTD/sodipodi-0.dtd"
   xmlns="http://www.w3.org/2000/svg"
   xmlns:svg="http://www.w3.org/2000/svg">
  <sodipodi:namedview
     id="namedview1"
     pagecolor="#ffffff"
     bordercolor="#000000"
     borderopacity="0.25"
     inkscape:showpageshadow="2"
     inkscape:pageopacity="0.0"
     inkscape:pagecheckerboard="0"
     inkscape:deskcolor="#d1d1d1"
     inkscape:document-units="mm"
     inkscape:zoom="0.63370775"
     inkscape:cx="220.13302"
     inkscape:cy="276.94154"
     inkscape:window-width="1366"
     inkscape:window-height="705"
     inkscape:window-x="-8"
     inkscape:window-y="-8"
     inkscape:window-maximized="1"
     inkscape:current-layer="layer1" />
  <defs
     id="defs1" />
  <g
     inkscape:label="Layer 1"
     inkscape:groupmode="layer"
     id="layer1"
     transform="translate(26.862387,-62.28025)">
    <path
       id="path134"
       style="baseline-shift:baseline;display:inline;overflow:visible;vector-effect:none;fill:#000000;stroke-width:1;stroke-linecap:round;stroke-linejoin:round;enable-background:accumulate;stop-color:#000000"
       d="M 90.185766 62.28025 C 90.113866 62.28097 90.056278 62.339608 90.056058 62.411508 L 90.056058 71.966997 C 90.014038 71.952697 89.970283 71.944776 89.924283 71.944776 L 87.769892 71.944776 C 87.553882 71.944776 87.375085 72.12101 87.375085 72.337 L 87.375085 78.942282 C 87.288685 78.888082 87.186935 78.855982 87.077945 78.855982 L 86.608206 78.855982 C 86.498046 78.855982 86.395383 78.888532 86.308483 78.943832 L 86.308483 78.52577 C 86.308483 78.47153 86.297511 78.419474 86.278511 78.371774 L 86.615958 78.371774 C 86.692228 78.373244 86.753283 78.309481 86.749283 78.233281 L 86.696056 77.0995 C 86.673096 76.60987 86.291227 76.210224 85.803087 76.166224 C 85.801087 76.166194 85.79992 76.166194 85.79792 76.166224 L 73.558874 75.47376 C 73.483744 75.46969 73.420501 75.529301 73.420381 75.604501 L 73.420381 79.446644 L 73.420381 79.95669 L 73.420381 83.757492 L 73.420381 83.796249 L 73.420381 83.797283 L 73.420381 95.745908 L -26.462928 95.745908 A 0.4000395 0.4000395 0 0 0 -26.863421 96.144333 L -26.863421 194.24222 A 0.4000395 0.4000395 0 0 0 -26.462928 194.64271 L 80.998213 194.64271 L 80.998213 195.48039 A 0.40003899 0.40003899 0 0 0 81.398188 195.88088 L 83.492117 195.88088 A 0.40003899 0.40003899 0 0 0 83.89261 195.48039 L 83.89261 94.906166 A 0.40003899 0.40003899 0 0 0 83.492117 94.505673 L 81.398188 94.505673 A 0.40003899 0.40003899 0 0 0 80.998213 94.906166 L 80.998213 95.745908 L 74.884891 95.745908 L 74.884891 83.851543 L 85.79792 83.23401 C 85.79992 83.23404 85.801087 83.23404 85.803087 83.23401 C 86.291237 83.19001 86.673056 82.789847 86.696056 82.300217 L 86.749283 81.166952 C 86.752213 81.091562 86.691458 81.029527 86.615958 81.030527 L 86.277994 81.030527 C 86.297994 80.982137 86.308483 80.929764 86.308483 80.874464 L 86.308483 80.456402 C 86.395413 80.511802 86.498036 80.543218 86.608206 80.543218 L 87.077945 80.543218 C 87.186935 80.543218 87.288385 80.512152 87.375085 80.457952 L 87.375085 87.573797 C 87.375085 87.789777 87.553882 87.966021 87.769892 87.966021 L 89.9248 87.966021 C 89.97072 87.966021 90.015358 87.957683 90.056058 87.943283 L 90.056058 96.947385 C 90.056278 97.019205 90.113966 97.077913 90.185766 97.078643 L 91.781017 97.078643 C 91.853427 97.078633 91.912055 97.019785 91.912275 96.947385 L 91.912275 62.410991 C 91.912055 62.338671 91.853417 62.28026 91.781017 62.28025 L 90.185766 62.28025 z M 90.319608 62.54225 L 91.648209 62.54225 L 91.648209 96.816643 L 90.319608 96.816643 L 90.319608 87.573797 L 90.319608 72.337 L 90.319608 62.54225 z M 87.769892 72.205742 L 89.9248 72.205742 C 89.99962 72.205742 90.056058 72.262 90.056058 72.337 L 90.056058 87.573797 C 90.056058 87.648817 89.9997 87.704538 89.9248 87.704538 L 87.769892 87.704538 C 87.695082 87.704538 87.638634 87.648797 87.638634 87.573797 L 87.638634 79.982529 L 87.638634 79.417705 L 87.638634 72.337 C 87.638634 72.26198 87.695092 72.205742 87.769892 72.205742 z M 73.681863 75.742477 L 85.777249 76.427707 C 86.136819 76.460117 86.417157 76.751303 86.434057 77.111903 L 86.480049 78.107708 L 84.187165 78.107708 L 83.728279 77.594561 C 83.702719 77.566061 83.666226 77.550333 83.628026 77.551153 L 79.00867 77.551153 C 78.52766 77.551153 78.136889 77.943981 78.136889 78.425001 L 78.136889 79.446644 L 78.136889 79.95669 L 78.136889 80.9773 C 78.136889 81.45832 78.52766 81.849081 79.00867 81.849081 L 83.628026 81.849081 C 83.666286 81.849881 83.702679 81.834073 83.728279 81.805673 L 84.187165 81.292526 L 86.480049 81.292526 L 86.434057 82.290398 C 86.417157 82.650998 86.136819 82.940644 85.777249 82.973044 L 74.233768 83.626234 L 73.681863 83.626234 L 73.681863 79.95669 L 73.681863 79.446127 L 73.681863 75.742477 z M 79.009187 77.812118 L 83.571699 77.812118 L 84.031103 78.327849 C 84.055903 78.355349 84.091254 78.371087 84.128254 78.371257 L 84.568021 78.371257 C 84.549321 78.418937 84.538565 78.471053 84.538565 78.525253 L 84.538565 80.874981 C 84.538565 80.930201 84.549354 80.982743 84.569054 81.031043 L 84.128254 81.031043 C 84.091154 81.031343 84.055803 81.047268 84.031103 81.074968 L 83.571699 81.588115 L 79.009187 81.588115 C 78.670047 81.588115 78.398888 81.31644 78.398888 80.9773 L 78.398888 79.95669 L 78.398888 79.446127 L 78.398888 78.425001 C 78.398888 78.085861 78.670047 77.812118 79.009187 77.812118 z M 84.926655 78.371257 L 85.919876 78.371257 C 85.993726 78.384397 86.046483 78.446453 86.046483 78.525253 L 86.046483 80.874981 C 86.046483 80.963851 85.979321 81.031043 85.890421 81.031043 L 84.956627 81.031043 C 84.867777 81.031043 84.800048 80.963881 84.800048 80.874981 L 84.800048 78.525253 C 84.800048 78.446613 84.852755 78.384357 84.926655 78.371257 z M 86.608206 79.117982 L 87.077945 79.117982 C 87.246545 79.117982 87.375085 79.249585 87.375085 79.417705 L 87.375085 79.982529 C 87.375085 80.150649 87.246025 80.282252 87.077945 80.282252 L 86.608206 80.282252 C 86.440086 80.282252 86.308483 80.150649 86.308483 79.982529 L 86.308483 79.417705 C 86.308483 79.249585 86.440086 79.117982 86.608206 79.117982 z M 74.194494 83.890817 L 74.620307 83.890817 L 74.620307 95.745908 L 73.681863 95.745908 L 73.681863 83.920273 L 74.194494 83.890817 z M 81.798681 95.306658 L 83.093692 95.306658 L 83.093692 195.0799 L 81.798681 195.0799 L 81.798681 194.24274 A 0.4000395 0.4000395 0 0 1 81.798681 194.24222 L 81.798681 96.144333 L 81.798681 95.306658 z M -26.062436 96.544825 L 80.998213 96.544825 L 80.998213 193.84173 L -26.062436 193.84173 L -26.062436 96.544825 z M -13.168132 174.91782 A 0.10001 0.10001 0 0 0 -13.267351 175.01755 L -13.267351 181.31226 A 0.10001 0.10001 0 0 0 -13.168132 181.412 L -6.8377695 181.412 A 0.10001 0.10001 0 0 0 -6.738034 181.31226 L -6.738034 175.01755 A 0.10001 0.10001 0 0 0 -6.8377695 174.91782 L -13.168132 174.91782 z M -13.068397 175.11729 L -6.9395721 175.11729 L -6.9395721 181.21304 L -13.068397 181.21304 L -13.068397 175.11729 z M -13.168132 183.17571 A 0.10001 0.10001 0 0 0 -13.267351 183.27545 L -13.267351 186.38844 A 0.10001 0.10001 0 0 0 -13.168132 186.48817 L -6.8377695 186.48817 A 0.10001 0.10001 0 0 0 -6.738034 186.38844 L -6.738034 183.27545 A 0.10001 0.10001 0 0 0 -6.8377695 183.17571 L -13.168132 183.17571 z M -13.068397 183.37518 L -6.9395721 183.37518 L -6.9395721 186.28922 L -13.068397 186.28922 L -13.068397 183.37518 z " />
  </g>
</svg>
