<svg width="118.77mm" height="133.6mm" version="1.1" viewBox="0 0 118.77 133.6" xmlns="http://www.w3.org/2000/svg">
 <g transform="translate(41.15 -123.66)">
  <path d="m-41.019 123.66c-0.0724 1e-5 -0.13104 0.05842-0.13126 0.13074v34.536c2.2e-4 0.0724 0.058848 0.13125 0.13126 0.13126h1.5953c0.0718-7.3e-4 0.13-0.05944 0.13022-0.13126v-9.0041c0.0407 0.0144 0.085338 0.02274 0.13126 0.02274h2.1544c0.21601 0 0.39481-0.17623 0.39481-0.39222v-7.1158c0.0867 0.0542 0.18815 0.08527 0.29714 0.08527h0.46974c0.11017 0 0.21331-0.03142 0.30024-0.08682v0.41806c0 0.0553 0.010489 0.10768 0.030489 0.15607h-0.33796c-0.0755-1e-3 -0.13677 0.06102-0.13384 0.13642l0.053744 1.1333c0.023 0.48963 0.40482 0.88979 0.89297 0.93379 2e-3 4e-5 0.003167 4e-5 0.005167 0l10.913 0.61753v11.894h-6.1138v-0.83974a0.40004 0.40004 0 0 0-0.40049-0.39843h-2.0934a0.40004 0.40004 0 0 0-0.40049 0.39843v100.57a0.40004 0.40004 0 0 0 0.40049 0.40049h2.0934a0.40004 0.40004 0 0 0 0.40049-0.40049v-0.83767h107.46a0.40004 0.40004 0 0 0 0.39998-0.4005v-98.096a0.40004 0.40004 0 0 0-0.39998-0.40049h-99.883v-11.948-0.00103-0.03876-3.8008-0.51005-3.8421c-1.2e-4 -0.0752-0.063363-0.13481-0.13849-0.13074l-12.239 0.69246c-2e-3 -3e-5 -0.003167-3e-5 -0.005167 0-0.48814 0.044-0.87001 0.44365-0.89297 0.93328l-0.053744 1.1338c-4e-3 0.0762 0.057572 0.13996 0.13384 0.13849h0.33693c-0.019 0.0477-0.029456 0.09976-0.029456 0.154v0.41806c-0.0869-0.0553-0.19008-0.08785-0.30024-0.08785h-0.46922c-0.10899 0-0.21074 0.0321-0.29714 0.0863v-6.6053c0-0.21598-0.17932-0.39222-0.39532-0.39222h-2.1544c-0.046 0-0.089238 0.00792-0.13126 0.02222v-9.5555c-2.2e-4 -0.0719-0.058324-0.13053-0.13022-0.13126h-1.5953zm0.13332 0.262h1.3286v9.7948 15.237 9.2428h-1.3286v-34.274zm1.7234 9.6635h2.1544c0.0748 0 0.13126 0.05624 0.13126 0.13126v7.0807 0.56482 7.5913c0 0.075-0.056448 0.13074-0.13126 0.13074h-2.1544c-0.0749 0-0.13126-0.05572-0.13126-0.13074v-15.237c0-0.075 0.056438-0.13126 0.13126-0.13126zm16.242 3.5367v3.7036 0.51056 3.6695h-0.5519l-11.543-0.65319c-0.35957-0.0324-0.63991-0.32204-0.65681-0.68264l-0.046508-0.99787h2.2929l0.45889 0.51314c0.0256 0.0284 0.062509 0.04421 0.10077 0.04341h4.6188c0.48101 0 0.87178-0.39076 0.87178-0.87178v-1.0206-0.51005-1.0216c0-0.48102-0.39077-0.87385-0.87178-0.87385h-4.6188c-0.0382-8.2e-4 -0.075209 0.01491-0.10077 0.04341l-0.45889 0.51315h-2.2929l0.046508-0.99581c0.0169-0.3606 0.29724-0.65179 0.65681-0.68419l12.095-0.68523zm-9.8898 2.0696h4.563c0.33914 0 0.60978 0.27374 0.60978 0.61288v1.0211 0.51056 1.0206c0 0.33914-0.27064 0.61082-0.60978 0.61082h-4.563l-0.4594-0.51315c-0.0247-0.0277-0.059535-0.04363-0.096635-0.04393h-0.44132c0.0197-0.0483 0.030489-0.10084 0.030489-0.15606v-2.3497c0-0.0542-0.010239-0.10631-0.028939-0.15399h0.43977c0.037-1.7e-4 0.071835-0.01591 0.096635-0.04341l0.4594-0.51573zm-2.3477 0.55914h0.9927c0.0739 0.0131 0.12712 0.07535 0.12712 0.15399v2.3497c0 0.0889-0.068246 0.15606-0.1571 0.15606h-0.93379c-0.0889 0-0.15606-0.06719-0.15606-0.15606v-2.3497c0-0.0788 0.053274-0.14085 0.12712-0.15399zm-1.1586 0.74672h0.46974c0.16812 0 0.30024 0.13161 0.30024 0.29973v0.56482c0 0.16812-0.13212 0.29972-0.30024 0.29972h-0.46974c-0.16808 0-0.29714-0.1316-0.29714-0.29972v-0.56482c0-0.16812 0.12854-0.29973 0.29714-0.29973zm12.458 4.7728h0.42633l0.51211 0.02945v11.825h-0.93844v-11.855zm-8.4724 11.415h1.295v0.83923a0.40004 0.40004 0 0 0 0 5.1e-4v98.096a0.40004 0.40004 0 0 0 0 5.2e-4v0.83923h-1.295v-99.775zm2.0939 1.2382h107.06v97.297h-107.06v-97.297z" stop-color="#000000" stroke-linecap="round" stroke-linejoin="round"/>
 </g>
</svg>
