<svg width="192.35mm" height="133.65mm" version="1.1" viewBox="0 0 192.35 133.65" xmlns="http://www.w3.org/2000/svg">
 <g transform="translate(143.54 -69.689)">
  <path d="m-24.948 69.689c-0.8245 0-1.4924 0.66792-1.4924 1.4924v30.733h-20.528a0.40004 0.40004 0 0 0-0.39843 0.40049 0.40004 0.40004 0 0 0-0.40049-0.40049h-95.377a0.40004 0.40004 0 0 0-0.39842 0.40049v100.62a0.40004 0.40004 0 0 0 0.39842 0.39842h95.377a0.40004 0.40004 0 0 0 0.40049-0.39842 0.40004 0.40004 0 0 0 0.39843 0.39842h95.377a0.40004 0.40004 0 0 0 0.39842-0.39842v-100.62a0.40004 0.40004 0 0 0-0.39842-0.40049h-20.883v-30.733c0-0.8245-0.6674-1.4924-1.4919-1.4924h-50.982zm0 0.26458h50.982c0.68187 0 1.2273 0.54596 1.2273 1.2278v32.226c0 0.68187-0.54544 1.2278-1.2273 1.2278h-50.982c-0.68188 0-1.2278-0.54596-1.2278-1.2278v-32.226c0-0.68187 0.54595-1.2278 1.2278-1.2278zm-0.072864 0.8723a0.13289 0.13289 0 0 0-0.13229 0.13488v32.67a0.13289 0.13289 0 0 0 0.13229 0.13229h51.125a0.13289 0.13289 0 0 0 0.13281-0.13229v-32.67a0.13289 0.13289 0 0 0-0.13281-0.13488h-51.125zm0.13488 0.26717h50.857v32.406h-50.857v-32.406zm25.437 7.4755-5.1676e-4 5.17e-4 -5.1677e-4 5.17e-4c-0.0079746 0.007456-0.02668 0.04898-0.045992 0.10439-0.13905 0.39957-0.52334 1.1651-0.74879 1.4919l-0.086816 0.12609 0.43667 0.87437c0.24005 0.48086 0.43929 0.87436 0.44287 0.87436 0.012 0 0.87449-1.7367 0.8692-1.7492-3e-3 -7e-3 -0.049056-0.078671-0.10284-0.15968-0.2312-0.34781-0.57282-1.0312-0.71107-1.4221-0.0236-0.067-0.046009-0.12981-0.049609-0.14004l-5.1676e-4 -5.17e-4h-5.1676e-4v-5.17e-4h-5.1677e-4 -5.1676e-4 -5.1677e-4zm-3.4174 1.3901 0.080098 0.16692c0.17993 0.37536 0.4166 1.0889 0.50333 1.5177l0.034623 0.17312 0.92139 0.30954c0.50658 0.17031 0.9257 0.31004 0.93173 0.31058 6.5625e-4 5.2e-5 0.0020314 8.5e-5 0.0025838 0h5.1676e-4l5.1677e-4 -5.16e-4 5.1676e-4 -5.17e-4h5.1677e-4l5.1676e-4 -5.17e-4v-5.17e-4h5.1676e-4v-5.17e-4l5.1677e-4 -5.16e-4c0.0011997-0.002854 6.5397e-4 -0.007386-0.0010335-0.011886-3e-3 -9e-3 -0.1428-0.42714-0.31006-0.92966-0.16726-0.50251-0.31079-0.91524-0.31884-0.91726-8e-3 -3e-3 -0.084005-0.016972-0.16847-0.033072-0.39263-0.0745-1.2051-0.34656-1.5565-0.52142l-0.12247-0.061495zm6.8259 0-0.13436 0.066146c-0.36523 0.17945-1.1578 0.44382-1.5555 0.51883-0.0775 0.0146-0.1475 0.028189-0.15555 0.030489-8e-3 3e-3 -0.15156 0.41526-0.31884 0.91777-0.16726 0.50252-0.30738 0.92171-0.31109 0.93173-0.00125 0.00375-0.0012952 0.007642-0.0010336 0.009819v5.16e-4 5.17e-4l5.168e-4 5.17e-4v5.17e-4l5.168e-4 5.17e-4h5.167e-4l5.168e-4 5.16e-4h5.168e-4l5.167e-4 5.17e-4h5.168e-4 5.168e-4c0.002194 3.14e-4 0.0053986 1.85e-4 0.0093017-0.001033 9e-3 -4e-3 0.42848-0.14388 0.93018-0.31109 0.80612-0.26867 0.91263-0.30724 0.91726-0.33176 0.0611-0.32514 0.12154-0.55211 0.24546-0.92449 0.10842-0.32582 0.21686-0.60376 0.30282-0.77515l0.067179-0.13488zm-6.4844 2.543c-7e-3 0-0.07123 0.039666-0.14366 0.088366-0.19145 0.12849-0.41141 0.25136-0.75913 0.42375-0.33366 0.16541-0.55326 0.26152-0.72657 0.31729-0.057188 0.018469-0.10516 0.036474-0.1111 0.041858h-5.168e-4v5.17e-4 5.17e-4l5.168e-4 5.17e-4v5.16e-4l5.168e-4 5.17e-4c0.0054578 0.004731 0.029011 0.013146 0.057361 0.020671 0.31346 0.0838 1.2996 0.57748 1.6015 0.8015l0.074414 0.055294 0.87385-0.43667c0.48056-0.24022 0.87385-0.43981 0.87385-0.44338 0-8e-3 -1.7244-0.87126-1.741-0.87126zm6.1521 0.00155c-0.012-5e-3 -1.7482 0.85819-1.7482 0.86971 0 4e-3 0.38742 0.20085 0.86093 0.43822 0.47353 0.23738 0.86814 0.43162 0.87695 0.43202h5.168e-4 5.168e-4c0.011787-0.001845 0.070327-0.037538 0.13333-0.081132 0.32843-0.22687 1.148-0.63554 1.5074-0.75189 0.046953-0.015156 0.082484-0.031099 0.090434-0.038757l5.168e-4 -5.17e-4v-5.17e-4l5.168e-4 -5.16e-4v-5.17e-4 -5.17e-4l-5.168e-4 -5.17e-4 -5.168e-4 -5.16e-4h-5.167e-4c-0.0106-4e-3 -0.070238-0.025326-0.13281-0.047026-0.37781-0.13194-1.0844-0.48504-1.4294-0.71468-0.0809-0.0539-0.15253-0.10005-0.15916-0.10284zm-4.0251 1.8056c-5e-3 5.5e-4 -0.4228 0.14077-0.92914 0.31109l-0.92036 0.30954-0.034623 0.1726c-0.0854 0.42925-0.34692 1.2079-0.52555 1.5648l-0.062012 0.12299 0.067696-0.036174c0.32602-0.17669 1.2841-0.49728 1.6929-0.56637l0.099219-0.016537 0.31006-0.93121c0.17062-0.51217 0.30649-0.93073 0.30179-0.93018v-5.17e-4zm1.8841 0.003618c-9e-3 9e-3 0.61468 1.8552 0.62787 1.8588 8e-3 3e-3 0.078116 0.016306 0.15555 0.031006 0.39495 0.0745 1.2184 0.34948 1.5555 0.51935 0.0598 0.0302 0.11303 0.055644 0.11834 0.056844h5.167e-4v-5.17e-4 -5.16e-4 -5.17e-4c-5.195e-4 -0.008403-0.017374-0.047827-0.040824-0.095602-0.16934-0.33707-0.45278-1.1835-0.52658-1.5725-0.0161-0.0845-0.030556-0.16042-0.032556-0.16847-3e-3 -0.0133-1.8488-0.63688-1.8578-0.62787zm-0.93896 0.39274c-4e-3 0-0.20276 0.3935-0.44287 0.87436l-0.43667 0.87436 0.056327 0.076481c0.22216 0.30309 0.66514 1.1855 0.786 1.5658 0.014175 0.044538 0.028028 0.080953 0.033073 0.087333l5.1676e-4 5.17e-4h5.1677e-4 5.1676e-4c3e-3 -3e-3 0.023709-0.05881 0.046509-0.12454 0.13563-0.38915 0.52337-1.1598 0.74517-1.481 0.045-0.0652 0.081649-0.12422 0.081649-0.13126 0-0.0169-0.86234-1.742-0.87075-1.742zm-17.433 4.8865c-0.96263 0-1.4438 0.48723-1.4438 1.4619 0.042903 0.96933 0.52411 1.4542 1.4438 1.4542 0.94788 0 1.4216-0.48484 1.4216-1.4542 0-0.9747-0.47374-1.4619-1.4216-1.4619zm3.3724 0c-1.0323 0-1.5482 0.47228-1.5482 1.4175 0 0.99883 0.51588 1.4986 1.5482 1.4986 0.31507 0 0.59688-0.047226 0.84491-0.14108v-0.48266c-0.24803 0.10726-0.51635 0.16123-0.8046 0.16123-0.69047 0-1.0356-0.34565-1.0356-1.0361 0-0.63684 0.34513-0.95498 1.0356-0.95498 0.28825 0 0.55657 0.053457 0.8046 0.16071v-0.48266c-0.24803-0.09385-0.52984-0.14056-0.84491-0.14056zm15.309 0c-1.0323 0-1.5487 0.47228-1.5487 1.4175 0 0.99883 0.50747 1.4986 1.5224 1.4986 0.34858 0 0.63881-0.051068 0.87075-0.15296v-1.1948h-0.53278v0.83664c-0.12335 0.03218-0.23316 0.048576-0.3297 0.048576-0.65158 0-0.97772-0.34565-0.97772-1.0361 0-0.63684 0.34513-0.95498 1.0356-0.95498 0.28825 0 0.55657 0.053457 0.8046 0.16071v-0.48266c-0.24803-0.09385-0.52933-0.14056-0.84439-0.14056zm16.603 0c-0.83794 0-1.2568 0.29479-1.2568 0.8847 0 0.53628 0.29406 0.8046 0.88263 0.8046h0.45062c0.27082 0 0.40618 0.10743 0.40618 0.32194 0 0.29496-0.22036 0.44235-0.66146 0.44235-0.36333 0-0.68947-0.053974-0.97772-0.16123v0.48266c0.28825 0.09385 0.61439 0.14108 0.97772 0.14108 0.79638 0 1.1942-0.30154 1.1942-0.90485 0-0.53628-0.31285-0.8046-0.93896-0.8046h-0.45062c-0.23328 0-0.34985-0.10743-0.34985-0.32194 0-0.28155 0.24133-0.4222 0.72399-0.4222 0.32177 0 0.62694 0.053457 0.91519 0.16071v-0.48266c-0.28825-0.09385-0.59342-0.14056-0.91519-0.14056zm-30.866 0.020154v0.4625h0.82476v2.4133h0.53278v-2.4133h0.82424v-0.4625h-2.1818zm3.453 0-1.2206 2.8758h0.54674l0.94723-2.327 0.45269 1.08h-0.57929l-0.18293 0.4625h0.95498l0.32815 0.78445h0.57309l-1.247-2.8758h-0.57309zm2.172 0v2.8758h0.53278v-2.8758h-0.53278zm1.9043 0-1.0697 1.1865v0.34572l1.1121 1.3436h0.73794l-1.3555-1.5343 1.2268-1.3415h-0.65164zm0.98185 0v2.8758h0.51263v-2.1399l1.5183 2.1399h0.53278v-2.8758h-0.51263v2.0955l-1.5183-2.0955h-0.53278zm3.1672 0v2.8758h0.53278v-2.8758h-0.53278zm3.9315 0v2.8758h0.53278v-1.2268h1.418v1.2268h0.53278v-2.8758h-0.53278v1.1865h-1.418v-1.1865h-0.53278zm2.7854 0v0.4625h0.82476v2.4133h0.53278v-2.4133h0.82424v-0.4625h-2.1818zm3.3884 0v2.8758h1.6753v-0.4625h-1.142v-2.4133h-0.5333zm3.1476 0-1.2206 2.8758h0.54674l0.94723-2.327 0.45269 1.08h-0.57929l-0.18294 0.4625h0.95498l0.32814 0.78445h0.57309l-1.247-2.8758h-0.57309zm2.172 0v2.8758h1.3048c0.5993 0 0.89917-0.28347 0.89917-0.85059 0-0.36467-0.19026-0.58265-0.57102-0.65371 0.35663-0.14077 0.53485-0.37463 0.53485-0.70176 0-0.44646-0.27361-0.66973-0.82062-0.66973h-1.3472zm-31.522 0.44235c0.57919 0 0.86868 0.32925 0.86868 0.98754 0 0.66901-0.2895 1.0036-0.86868 1.0036-0.59394 0-0.8909-0.33454-0.8909-1.0036 0-0.65829 0.29697-0.98754 0.8909-0.98754zm32.054 0.020154h0.78031c0.19843 0 0.29766 0.080444 0.29766 0.24133 0 0.2963-0.22109 0.48127-0.66353 0.555v0.34365h0.16071c0.35261 0 0.52917 0.14957 0.52917 0.44855 0 0.24133-0.11802 0.36225-0.35398 0.36225h-0.75034v-1.9508zm-157.91 12.641h94.576v99.824h-94.576v-99.824zm96.176 0h20.127v0.69247c0 0.8245 0.66792 1.4924 1.4924 1.4924h50.982c0.8245 0 1.4919-0.66791 1.4919-1.4924v-0.69247h20.482v99.824h-94.576v-99.824zm-7.3474 6.951c-0.53685-1e-5 -0.97875 0.44189-0.97875 0.97875 0 0.53685 0.4419 0.97824 0.97875 0.97824 0.53686 0 0.97824-0.44139 0.97824-0.97824 0-0.53686-0.44138-0.97876-0.97824-0.97875zm3.3026 0c-0.53685-1e-5 -0.97875 0.44189-0.97875 0.97875 0 0.53685 0.4419 0.97824 0.97875 0.97824 0.53686 0 0.97824-0.44139 0.97824-0.97824 0-0.53686-0.44138-0.97876-0.97824-0.97875zm6.4895 0c-0.53686-1e-5 -0.97824 0.44189-0.97824 0.97875 0 0.53685 0.44138 0.97824 0.97824 0.97824 0.53685 0 0.97875-0.44139 0.97875-0.97824 0-0.53686-0.4419-0.97876-0.97875-0.97875zm3.3026 0c-0.53686-1e-5 -0.97824 0.44189-0.97824 0.97875 0 0.53685 0.44138 0.97824 0.97824 0.97824 0.53685 0 0.97875-0.44139 0.97875-0.97824 0-0.53686-0.4419-0.97876-0.97875-0.97875zm-13.095 0.59945c0.2126 0 0.37879 0.16619 0.37879 0.37878s-0.16619 0.37672-0.37879 0.37672c-0.21259 0-0.3793-0.16413-0.3793-0.37672s0.16672-0.37878 0.3793-0.37878zm3.3026 0c0.2126 0 0.37879 0.16619 0.37879 0.37878s-0.16619 0.37672-0.37879 0.37672c-0.21259 0-0.3793-0.16413-0.3793-0.37672s0.16672-0.37878 0.3793-0.37878zm6.4895 0c0.21259 0 0.3793 0.16619 0.3793 0.37878s-0.16672 0.37672-0.3793 0.37672c-0.2126 0-0.37879-0.16413-0.37879-0.37672s0.16619-0.37878 0.37879-0.37878zm3.3026 0c0.21259 0 0.3793 0.16619 0.3793 0.37878s-0.16672 0.37672-0.3793 0.37672c-0.2126 0-0.37879-0.16413-0.37879-0.37672s0.16619-0.37878 0.37879-0.37878zm-97.363 0.59686c-0.53685-1e-5 -0.97875 0.44189-0.97875 0.97875s0.4419 0.97823 0.97875 0.97823c0.53686 0 0.97823-0.44137 0.97823-0.97823s-0.44137-0.97876-0.97823-0.97875zm3.3026 0c-0.53685-1e-5 -0.97875 0.44189-0.97875 0.97875s0.4419 0.97823 0.97875 0.97823c0.53686 0 0.97824-0.44137 0.97824-0.97823s-0.44138-0.97876-0.97824-0.97875zm175.03 0c-0.53686-1e-5 -0.97823 0.44189-0.97823 0.97875s0.44137 0.97823 0.97823 0.97823c0.53685 0 0.97875-0.44137 0.97875-0.97823s-0.4419-0.97876-0.97875-0.97875zm3.3026 0c-0.53686-1e-5 -0.97824 0.44189-0.97824 0.97875s0.44138 0.97823 0.97824 0.97823c0.53685 0 0.97875-0.44137 0.97875-0.97823s-0.4419-0.97876-0.97875-0.97875zm-181.63 0.59944c0.2126 0 0.37879 0.16619 0.37879 0.37879 0 0.21259-0.16619 0.37672-0.37879 0.37672-0.21259 0-0.37931-0.16413-0.37931-0.37672 0-0.2126 0.16672-0.37879 0.37931-0.37879zm3.3026 0c0.2126 0 0.37879 0.16619 0.37879 0.37879 0 0.21259-0.16619 0.37672-0.37879 0.37672-0.21259 0-0.3793-0.16413-0.3793-0.37672 0-0.2126 0.16671-0.37879 0.3793-0.37879zm175.03 0c0.21259 0 0.3793 0.16619 0.3793 0.37879 0 0.21259-0.16672 0.37672-0.3793 0.37672-0.2126 0-0.37879-0.16413-0.37879-0.37672 0-0.2126 0.16619-0.37879 0.37879-0.37879zm3.3026 0c0.21259 0 0.3793 0.16619 0.3793 0.37879 0 0.21259-0.16672 0.37672-0.3793 0.37672-0.2126 0-0.37879-0.16413-0.37879-0.37672 0-0.2126 0.16619-0.37879 0.37879-0.37879zm-181.63 4.9051c-0.53685-1e-5 -0.97875 0.44189-0.97875 0.97875s0.4419 0.97824 0.97875 0.97824c0.53686 0 0.97823-0.44138 0.97823-0.97824s-0.44137-0.97876-0.97823-0.97875zm3.3026 0c-0.53685-1e-5 -0.97875 0.44189-0.97875 0.97875s0.4419 0.97824 0.97875 0.97824c0.53686 0 0.97824-0.44138 0.97824-0.97824s-0.44138-0.97876-0.97824-0.97875zm175.03 0c-0.53686-1e-5 -0.97823 0.44189-0.97823 0.97875s0.44137 0.97824 0.97823 0.97824c0.53685 0 0.97875-0.44138 0.97875-0.97824s-0.4419-0.97876-0.97875-0.97875zm3.3026 0c-0.53686-1e-5 -0.97824 0.44189-0.97824 0.97875s0.44138 0.97824 0.97824 0.97824c0.53685 0 0.97875-0.44138 0.97875-0.97824s-0.4419-0.97876-0.97875-0.97875zm-181.63 0.59945c0.2126 0 0.37879 0.1662 0.37879 0.37879 0 0.2126-0.16619 0.37672-0.37879 0.37672-0.21259 0-0.37931-0.16412-0.37931-0.37672 0-0.21259 0.16672-0.37879 0.37931-0.37879zm3.3026 0c0.2126 0 0.37879 0.1662 0.37879 0.37879 0 0.2126-0.16619 0.37672-0.37879 0.37672-0.21259 0-0.3793-0.16412-0.3793-0.37672 0-0.21259 0.16671-0.37879 0.3793-0.37879zm175.03 0c0.21259 0 0.3793 0.1662 0.3793 0.37879 0 0.2126-0.16672 0.37672-0.3793 0.37672-0.2126 0-0.37879-0.16412-0.37879-0.37672 0-0.21259 0.16619-0.37879 0.37879-0.37879zm3.3026 0c0.21259 0 0.3793 0.1662 0.3793 0.37879 0 0.2126-0.16672 0.37672-0.3793 0.37672-0.2126 0-0.37879-0.16412-0.37879-0.37672 0-0.21259 0.16619-0.37879 0.37879-0.37879zm-155.84 22.004c-0.31573 0-0.57619 0.26047-0.57619 0.57619v26.16c0 0.31573 0.26046 0.57619 0.57619 0.57619h33.879c0.31573 0 0.57619-0.26046 0.57619-0.57619v-26.16c0-0.31572-0.26046-0.57619-0.57619-0.57619h-33.879zm0 0.39843h33.879c0.10105 0 0.1757 0.07673 0.1757 0.17776v26.16c0 0.10105-0.074649 0.17777-0.1757 0.17777h-33.879c-0.10105 0-0.17776-0.07673-0.17776-0.17777v-26.16c0-0.10104 0.07672-0.17776 0.17776-0.17776zm0.92398 0.8418c-0.24439 0-0.44339 0.20108-0.44339 0.44546v23.941c0 0.24438 0.199 0.44545 0.44339 0.44545h32.029c0.24438 0 0.44338-0.20107 0.44338-0.44545v-23.941c0-0.24438-0.199-0.44546-0.44338-0.44546h-32.029zm0 0.20103h32.029c0.13704 0 0.24443 0.10739 0.24443 0.24443v23.941c0 0.13704-0.10739 0.24443-0.24443 0.24443h-32.029c-0.13705 0-0.24392-0.10739-0.24392-0.24443v-23.941c0-0.13704 0.10687-0.24443 0.24392-0.24443zm126.33 32.773a0.1 0.1 0 0 0-0.04961 0.01809 0.1 0.1 0 0 0-0.023254 0.14056l0.068213 0.09611c-0.054414 0.08516-0.085783 0.1864-0.085783 0.29456v16.625c0 0.30224 0.24657 0.54881 0.5488 0.54881h16.625c0.30223 0 0.5488-0.24657 0.5488-0.54881v-7.859a0.1 0.1 0 0 0 0-5.1e-4v-1.8051a0.1 0.1 0 0 0 0-0.0031 0.1 0.1 0 0 0 0-5.2e-4v-6.9567c0-0.30223-0.24657-0.5488-0.5488-0.5488h-16.625c-0.12048 0-0.23228 0.03914-0.32298 0.10542l-0.044442-0.06253a0.1 0.1 0 0 0-0.09095-0.04341zm0.45837 0.19947h16.625c0.19489 0 0.34778 0.15496 0.34778 0.34985v6.8575h-12.107l-5.0741-7.1396c0.057926-0.04258 0.12989-0.0677 0.20826-0.0677zm-0.33228 0.23926 5.0472 7.1009v1.7482l-4.7537 8.2341c-0.17615-0.01903-0.31109-0.16607-0.31109-0.34779v-16.625c0-0.03873 0.006248-0.07593 0.01757-0.11059zm5.2462 7.1691h12.059v1.6077h-12.059v-1.6077zm-0.040825 1.8066h12.1v7.7597c0 0.1949-0.15289 0.34985-0.34778 0.34985h-16.436l4.684-8.1096zm-158.37 4.346c-0.53685-1e-5 -0.97875 0.44189-0.97875 0.97875 0 0.53685 0.4419 0.97824 0.97875 0.97824 0.53686 0 0.97823-0.44139 0.97823-0.97824 0-0.53686-0.44137-0.97876-0.97823-0.97875zm3.3026 0c-0.53685-1e-5 -0.97875 0.44189-0.97875 0.97875 0 0.53685 0.4419 0.97824 0.97875 0.97824 0.53686 0 0.97824-0.44139 0.97824-0.97824 0-0.53686-0.44138-0.97876-0.97824-0.97875zm175.03 0c-0.53686-1e-5 -0.97823 0.44189-0.97823 0.97875 0 0.53685 0.44137 0.97824 0.97823 0.97824 0.53685 0 0.97875-0.44139 0.97875-0.97824 0-0.53686-0.4419-0.97876-0.97875-0.97875zm3.3026 0c-0.53686-1e-5 -0.97824 0.44189-0.97824 0.97875 0 0.53685 0.44138 0.97824 0.97824 0.97824 0.53685 0 0.97875-0.44139 0.97875-0.97824 0-0.53686-0.4419-0.97876-0.97875-0.97875zm-181.63 0.59945c0.2126 0 0.37879 0.16619 0.37879 0.37878s-0.16619 0.37673-0.37879 0.37673c-0.21259 0-0.37931-0.16414-0.37931-0.37673s0.16672-0.37878 0.37931-0.37878zm3.3026 0c0.2126 0 0.37879 0.16619 0.37879 0.37878s-0.16619 0.37673-0.37879 0.37673c-0.21259 0-0.3793-0.16414-0.3793-0.37673s0.16671-0.37878 0.3793-0.37878zm175.03 0c0.21259 0 0.3793 0.16619 0.3793 0.37878s-0.16672 0.37673-0.3793 0.37673c-0.2126 0-0.37879-0.16414-0.37879-0.37673s0.16619-0.37878 0.37879-0.37878zm3.3026 0c0.21259 0 0.3793 0.16619 0.3793 0.37878s-0.16672 0.37673-0.3793 0.37673c-0.2126 0-0.37879-0.16414-0.37879-0.37673s0.16619-0.37878 0.37879-0.37878zm-181.63 4.9051c-0.53685-1e-5 -0.97875 0.44189-0.97875 0.97875 0 0.53685 0.4419 0.97824 0.97875 0.97824 0.53686 0 0.97823-0.44139 0.97823-0.97824 0-0.53686-0.44137-0.97876-0.97823-0.97875zm3.3026 0c-0.53685-1e-5 -0.97875 0.44189-0.97875 0.97875 0 0.53685 0.4419 0.97824 0.97875 0.97824 0.53686 0 0.97824-0.44139 0.97824-0.97824 0-0.53686-0.44138-0.97876-0.97824-0.97875zm175.03 0c-0.53686-1e-5 -0.97823 0.44189-0.97823 0.97875 0 0.53685 0.44137 0.97824 0.97823 0.97824 0.53685 0 0.97875-0.44139 0.97875-0.97824 0-0.53686-0.4419-0.97876-0.97875-0.97875zm3.3026 0c-0.53686-1e-5 -0.97824 0.44189-0.97824 0.97875 0 0.53685 0.44138 0.97824 0.97824 0.97824 0.53685 0 0.97875-0.44139 0.97875-0.97824 0-0.53686-0.4419-0.97876-0.97875-0.97875zm-181.63 0.59945c0.2126 0 0.37879 0.1662 0.37879 0.37879s-0.16619 0.37672-0.37879 0.37672c-0.21259 0-0.37931-0.16413-0.37931-0.37672s0.16672-0.37879 0.37931-0.37879zm3.3026 0c0.2126 0 0.37879 0.1662 0.37879 0.37879s-0.16619 0.37672-0.37879 0.37672c-0.21259 0-0.3793-0.16413-0.3793-0.37672s0.16671-0.37879 0.3793-0.37879zm175.03 0c0.21259 0 0.3793 0.1662 0.3793 0.37879s-0.16672 0.37672-0.3793 0.37672c-0.2126 0-0.37879-0.16413-0.37879-0.37672s0.16619-0.37879 0.37879-0.37879zm3.3026 0c0.21259 0 0.3793 0.1662 0.3793 0.37879s-0.16672 0.37672-0.3793 0.37672c-0.2126 0-0.37879-0.16413-0.37879-0.37672s0.16619-0.37879 0.37879-0.37879zm-97.363 0.96221c-0.53685-1e-5 -0.97875 0.4419-0.97875 0.97876s0.4419 0.97824 0.97875 0.97823c0.53686 1e-5 0.97824-0.44137 0.97824-0.97823s-0.44138-0.97877-0.97824-0.97876zm3.3026 0c-0.53685-1e-5 -0.97875 0.4419-0.97875 0.97876s0.4419 0.97824 0.97875 0.97823c0.53686 1e-5 0.97824-0.44137 0.97824-0.97823s-0.44138-0.97877-0.97824-0.97876zm6.4895 0c-0.53686-1e-5 -0.97824 0.4419-0.97824 0.97876s0.44138 0.97824 0.97824 0.97823c0.53685 1e-5 0.97875-0.44137 0.97875-0.97823s-0.4419-0.97877-0.97875-0.97876zm3.3026 0c-0.53686-1e-5 -0.97824 0.4419-0.97824 0.97876s0.44138 0.97824 0.97824 0.97823c0.53685 1e-5 0.97875-0.44137 0.97875-0.97823s-0.4419-0.97877-0.97875-0.97876zm-13.095 0.59945c0.2126 0 0.37879 0.1662 0.37879 0.37879s-0.16619 0.37673-0.37879 0.37672c-0.21259 1e-5 -0.3793-0.16413-0.3793-0.37672s0.16672-0.37879 0.3793-0.37879zm3.3026 0c0.2126 0 0.37879 0.1662 0.37879 0.37879s-0.16619 0.37673-0.37879 0.37672c-0.21259 1e-5 -0.3793-0.16413-0.3793-0.37672s0.16672-0.37879 0.3793-0.37879zm6.4895 0c0.21259 0 0.3793 0.1662 0.3793 0.37879s-0.16672 0.37673-0.3793 0.37672c-0.2126 1e-5 -0.37879-0.16413-0.37879-0.37672s0.16619-0.37879 0.37879-0.37879zm3.3026 0c0.21259 0 0.3793 0.1662 0.3793 0.37879s-0.16672 0.37673-0.3793 0.37672c-0.2126 1e-5 -0.37879-0.16413-0.37879-0.37672s0.16619-0.37879 0.37879-0.37879z" opacity=".7533" stop-color="#000000" stroke-linecap="round" stroke-linejoin="round"/>
 </g>
</svg>
