<?xml version="1.0" encoding="UTF-8" standalone="no"?>
<svg
   width="3139.0188"
   height="1026.9486"
   version="1.1"
   viewBox="0 0 830.52617 271.71156"
   id="svg21"
   sodipodi:docname="The Octaknight Logo.svg"
   inkscape:version="1.4.2 (f4327f4, 2025-05-13)"
   xmlns:inkscape="http://www.inkscape.org/namespaces/inkscape"
   xmlns:sodipodi="http://sodipodi.sourceforge.net/DTD/sodipodi-0.dtd"
   xmlns="http://www.w3.org/2000/svg"
   xmlns:svg="http://www.w3.org/2000/svg">
  <sodipodi:namedview
     id="namedview21"
     pagecolor="#ffffff"
     bordercolor="#000000"
     borderopacity="0.25"
     inkscape:showpageshadow="2"
     inkscape:pageopacity="0.0"
     inkscape:pagecheckerboard="0"
     inkscape:deskcolor="#d1d1d1"
     inkscape:zoom="0.083070512"
     inkscape:cx="908.86644"
     inkscape:cy="-234.74034"
     inkscape:window-width="1366"
     inkscape:window-height="705"
     inkscape:window-x="-8"
     inkscape:window-y="-8"
     inkscape:window-maximized="1"
     inkscape:current-layer="svg21" />
  <defs
     id="defs5">
    <linearGradient
       id="linearGradient12"
       x1="0.95020002"
       x2="175.53999"
       y1="175.48"
       y2="0.89458001"
       gradientTransform="translate(-0.95199998,-0.89199998)"
       gradientUnits="userSpaceOnUse">
      <stop
         stop-color="#ffd23f"
         offset="0"
         id="stop1" />
      <stop
         stop-color="#c49b1a"
         offset=".26551"
         id="stop2" />
      <stop
         stop-color="#ffd23f"
         offset=".52114"
         id="stop3" />
      <stop
         stop-color="#c69d1c"
         offset=".76967"
         id="stop4" />
      <stop
         stop-color="#ffd23f"
         offset="1"
         id="stop5" />
    </linearGradient>
  </defs>
  <path
     d="M 13.448,0.50800002 0.50800002,11.691 v 151.2 L 13.448,174.074 h 147.69 l 12.94,-11.183 V 11.691 L 161.138,0.50800002 Z"
     stroke="url(#linearGradient12)"
     stroke-linecap="round"
     stroke-linejoin="round"
     stroke-width="1.016"
     id="path5"
     style="stroke:url(#linearGradient12)" />
  <rect
     x="322.52621"
     y="47.947994"
     width="508"
     height="79.375"
     fill="#ffffff"
     id="rect5" />
  <g
     transform="matrix(0.40117,0,0,0.40143,146.718,230.685)"
     stroke-width="0.65932"
     id="g13">
    <path
       d="m 550.06,-331.97 c -0.0655,0 -3.7246,7.2166 -8.1316,16.037 l -8.0131,16.036 1.0339,1.4098 c 4.0775,5.5594 12.206,21.744 14.425,28.72 0.29702,0.93401 0.58126,1.6574 0.63143,1.6073 0.0496,-0.0501 0.43546,-1.0786 0.85637,-2.2856 2.4894,-7.1376 9.604,-21.268 13.675,-27.16 0.82587,-1.1954 1.5018,-2.2789 1.5018,-2.408 0,-0.30907 -15.824,-31.957 -15.978,-31.957 z"
       id="path6" />
    <path
       d="m 567.29,-339.18 c -0.16408,0.1641 11.277,34.033 11.519,34.1 0.14751,0.0407 1.431,0.29323 2.8526,0.56122 7.2487,1.3666 22.363,6.4092 28.549,9.525 1.0985,0.55325 2.0778,1.0236 2.1762,1.0451 0.0984,0.0215 -0.23344,-0.78036 -0.73683,-1.7819 -3.1079,-6.1825 -8.3094,-21.708 -9.6639,-28.843 -0.29429,-1.5508 -0.5658,-2.9402 -0.60284,-3.0878 -0.0608,-0.2415 -33.928,-11.685 -34.094,-11.519 z"
       id="path7" />
    <path
       d="m 532.71,-339.24 c -0.0862,0.01 -7.7606,2.574 -17.054,5.698 l -16.897,5.6801 -0.63236,3.172 c -1.5693,7.8735 -6.3693,22.15 -9.6479,28.696 l -1.1332,2.2614 1.2352,-0.66864 c 5.9837,-3.2409 23.571,-9.1197 31.075,-10.387 l 1.822,-0.30771 5.6941,-17.081 c 3.1317,-9.3943 5.6237,-17.072 5.5374,-17.062 z"
       id="path8" />
    <path
       d="m 606.58,-372.36 c -0.23006,-0.097 -32.087,15.742 -32.087,15.953 0,0.0658 7.1107,3.6819 15.802,8.0358 8.691,4.3539 15.934,7.9221 16.095,7.9294 0.16161,0.007 1.2722,-0.66162 2.4675,-1.4868 6.0278,-4.1611 21.071,-11.664 27.667,-13.798 1.1014,-0.35639 1.8394,-0.70362 1.645,-0.7746 -0.19386,-0.0708 -1.2907,-0.45617 -2.4375,-0.85637 -6.9342,-2.42 -19.897,-8.8999 -26.229,-13.112 -1.4862,-0.98858 -2.8019,-1.8394 -2.9237,-1.8908 z"
       id="path9" />
    <path
       d="m 493.67,-372.39 c -0.12576,0 -1.3153,0.72893 -2.6432,1.6198 -3.5139,2.3576 -7.5457,4.6062 -13.928,7.7683 -6.1238,3.034 -10.161,4.7946 -13.341,5.8175 -1.1198,0.36013 -2.0394,0.71222 -2.0427,0.78234 0,0.0701 0.4803,0.2575 1.0751,0.41659 5.7531,1.5387 23.845,10.587 29.385,14.696 l 1.3726,1.018 16.037,-8.0106 c 8.8201,-4.406 16.036,-8.0647 16.036,-8.1302 0,-0.15258 -31.645,-15.978 -31.95,-15.978 z"
       id="path10" />
    <path
       d="m 487.4,-419.03 1.465,3.0544 c 3.3023,6.8846 7.6465,19.978 9.2381,27.844 l 0.64151,3.172 16.905,5.6801 c 9.2976,3.124 16.995,5.688 17.106,5.698 0.11075,0.01 0.15309,-0.11376 0.0939,-0.27529 -0.059,-0.16154 -2.6199,-7.8351 -5.6898,-17.052 -3.0699,-9.2172 -5.7023,-16.789 -5.8499,-16.826 -0.14762,-0.0371 -1.5375,-0.30797 -3.0882,-0.60237 -7.2062,-1.3679 -22.119,-6.3646 -28.569,-9.572 z"
       id="path11" />
    <path
       d="m 612.68,-419.03 -2.4671,1.2115 c -6.7033,3.2915 -21.251,8.141 -28.549,9.5168 -1.4216,0.268 -2.7054,0.52046 -2.853,0.56122 -0.14772,0.0408 -2.78,7.616 -5.85,16.833 -3.0698,9.2172 -5.6372,16.909 -5.7053,17.093 -0.0805,0.21725 -0.009,0.29127 0.2105,0.21094 0.18399,-0.0681 7.8689,-2.633 17.077,-5.6999 14.795,-4.9278 16.753,-5.6353 16.838,-6.085 1.1224,-5.9636 2.2277,-10.127 4.501,-16.957 1.9892,-5.9761 3.982,-11.073 5.5596,-14.217 z"
       id="path12" />
    <path
       d="m 550.14,-444.53 c -0.009,-0.004 -0.0138,-0.004 -0.0231,4.2e-4 -0.1279,0.057 -0.4863,0.85147 -0.86369,1.9353 -2.552,7.3288 -9.6054,21.375 -13.743,27.369 l -1.5928,2.3073 8.0107,16.037 c 4.4057,8.8201 8.0639,16.036 8.1297,16.036 0.21132,0 16.051,-31.857 15.954,-32.087 -0.0515,-0.12187 -0.90216,-1.4376 -1.8908,-2.9237 -4.2435,-6.3796 -10.516,-18.912 -13.054,-26.081 -0.43441,-1.2277 -0.84364,-2.3848 -0.90958,-2.571 -0.009,-0.0117 -0.0101,-0.0188 -0.0169,-0.0223 z"
       id="path13" />
  </g>
  <text
     x="405.99442"
     y="103.23826"
     fill="#000000"
     font-family="Sansation"
     font-size="44.69px"
     font-weight="bold"
     stroke-linecap="round"
     stroke-linejoin="round"
     stroke-width="0.2"
     xml:space="preserve"
     id="text13"><tspan
       x="405.99442"
       y="103.23826"
       fill="#000000"
       stroke-width="0.2"
       id="tspan13">OCTAKNIGHT LABS</tspan></text>
  <text
     x="749.98328"
     y="121.62942"
     fill="#000000"
     font-family="Sansation"
     font-size="15.946px"
     font-weight="bold"
     stroke-linecap="round"
     stroke-linejoin="round"
     stroke-width="0.2"
     xml:space="preserve"
     id="text14"><tspan
       x="749.98328"
       y="121.62942"
       fill="#333333"
       font-style="italic"
       stroke-width="0.2"
       id="tspan14">PVT. LTD.</tspan></text>
  <g
     transform="matrix(0.40117,0,0,0.40143,146.718,379.358)"
     fill="#000080"
     stroke-width="0.65932"
     id="g21">
    <path
       d="m 550.06,-331.97 c -0.0655,0 -3.7246,7.2166 -8.1316,16.037 l -8.0131,16.036 1.0339,1.4098 c 4.0775,5.5594 12.206,21.744 14.425,28.72 0.29702,0.93401 0.58126,1.6574 0.63143,1.6073 0.0496,-0.0501 0.43546,-1.0786 0.85637,-2.2856 2.4894,-7.1376 9.604,-21.268 13.675,-27.16 0.82587,-1.1954 1.5018,-2.2789 1.5018,-2.408 0,-0.30907 -15.824,-31.957 -15.978,-31.957 z"
       id="path14" />
    <path
       d="m 567.29,-339.18 c -0.16408,0.1641 11.277,34.033 11.519,34.1 0.14751,0.0407 1.431,0.29323 2.8526,0.56122 7.2487,1.3666 22.363,6.4092 28.549,9.525 1.0985,0.55325 2.0778,1.0236 2.1762,1.0451 0.0984,0.0215 -0.23344,-0.78036 -0.73683,-1.7819 -3.1079,-6.1825 -8.3094,-21.708 -9.6639,-28.843 -0.29429,-1.5508 -0.5658,-2.9402 -0.60284,-3.0878 -0.0608,-0.2415 -33.928,-11.685 -34.094,-11.519 z"
       id="path15" />
    <path
       d="m 532.71,-339.24 c -0.0862,0.01 -7.7606,2.574 -17.054,5.698 l -16.897,5.6801 -0.63236,3.172 c -1.5693,7.8735 -6.3693,22.15 -9.6479,28.696 l -1.1332,2.2614 1.2352,-0.66864 c 5.9837,-3.2409 23.571,-9.1197 31.075,-10.387 l 1.822,-0.30771 5.6941,-17.081 c 3.1317,-9.3943 5.6237,-17.072 5.5374,-17.062 z"
       id="path16" />
    <path
       d="m 606.58,-372.36 c -0.23006,-0.097 -32.087,15.742 -32.087,15.953 0,0.0658 7.1107,3.6819 15.802,8.0358 8.691,4.3539 15.934,7.9221 16.095,7.9294 0.16161,0.007 1.2722,-0.66162 2.4675,-1.4868 6.0278,-4.1611 21.071,-11.664 27.667,-13.798 1.1014,-0.35639 1.8394,-0.70362 1.645,-0.7746 -0.19386,-0.0708 -1.2907,-0.45617 -2.4375,-0.85637 -6.9342,-2.42 -19.897,-8.8999 -26.229,-13.112 -1.4862,-0.98858 -2.8019,-1.8394 -2.9237,-1.8908 z"
       id="path17" />
    <path
       d="m 493.67,-372.39 c -0.12576,0 -1.3153,0.72893 -2.6432,1.6198 -3.5139,2.3576 -7.5457,4.6062 -13.928,7.7683 -6.1238,3.034 -10.161,4.7946 -13.341,5.8175 -1.1198,0.36013 -2.0394,0.71222 -2.0427,0.78234 0,0.0701 0.4803,0.2575 1.0751,0.41659 5.7531,1.5387 23.845,10.587 29.385,14.696 l 1.3726,1.018 16.037,-8.0106 c 8.8201,-4.406 16.036,-8.0647 16.036,-8.1302 0,-0.15258 -31.645,-15.978 -31.95,-15.978 z"
       id="path18" />
    <path
       d="m 487.4,-419.03 1.465,3.0544 c 3.3023,6.8846 7.6465,19.978 9.2381,27.844 l 0.64151,3.172 16.905,5.6801 c 9.2976,3.124 16.995,5.688 17.106,5.698 0.11075,0.01 0.15309,-0.11376 0.0939,-0.27529 -0.059,-0.16154 -2.6199,-7.8351 -5.6898,-17.052 -3.0699,-9.2172 -5.7023,-16.789 -5.8499,-16.826 -0.14762,-0.0371 -1.5375,-0.30797 -3.0882,-0.60237 -7.2062,-1.3679 -22.119,-6.3646 -28.569,-9.572 z"
       id="path19" />
    <path
       d="m 612.68,-419.03 -2.4671,1.2115 c -6.7033,3.2915 -21.251,8.141 -28.549,9.5168 -1.4216,0.268 -2.7054,0.52046 -2.853,0.56122 -0.14772,0.0408 -2.78,7.616 -5.85,16.833 -3.0698,9.2172 -5.6372,16.909 -5.7053,17.093 -0.0805,0.21725 -0.009,0.29127 0.2105,0.21094 0.18399,-0.0681 7.8689,-2.633 17.077,-5.6999 14.795,-4.9278 16.753,-5.6353 16.838,-6.085 1.1224,-5.9636 2.2277,-10.127 4.501,-16.957 1.9892,-5.9761 3.982,-11.073 5.5596,-14.217 z"
       id="path20" />
    <path
       d="m 550.14,-444.53 c -0.009,-0.004 -0.0138,-0.004 -0.0231,4.2e-4 -0.1279,0.057 -0.4863,0.85147 -0.86369,1.9353 -2.552,7.3288 -9.6054,21.375 -13.743,27.369 l -1.5928,2.3073 8.0107,16.037 c 4.4057,8.8201 8.0639,16.036 8.1297,16.036 0.21132,0 16.051,-31.857 15.954,-32.087 -0.0515,-0.12187 -0.90216,-1.4376 -1.8908,-2.9237 -4.2435,-6.3796 -10.516,-18.912 -13.054,-26.081 -0.43441,-1.2277 -0.84364,-2.3848 -0.90958,-2.571 -0.009,-0.0117 -0.0101,-0.0188 -0.0169,-0.0223 z"
       id="path21" />
  </g>
</svg>
